# xmcd
#
# Track frame offsets:
# 150
# 11572
# 23515
# 36937
# 49405
# 60223
# 73290
# 86657
# 96799
# 109267
# 118884
#
# Disc length: 1753 seconds
#
# Revision: 0
# Processed by: cddbd v1.5.2PL0 Copyright (c) Steve Scherf et al.
# Submitted via: Axialis_AX_CDPlayer 2.6
#
DISCID=9106d70b
DTITLE=Conway Twitty and Loretta Lynn - Louisiana Woman, Mississippi Man
DYEAR=1900
DGENRE=
TTITLE0=Louisiana Woman, Mississippi Man
TTITLE1=For Heavens Sake
TTITLE2=Release Me
TTITLE3=You Lay So Easy On My Mind
TTITLE4=Our Conscience, You And Me
TTITLE5=As Good As A Lonely Girl Can
TTITLE6=Bye Bye Love
TTITLE7=Living Together Alone
TTITLE8=What Are We Gonna Do About Us
TTITLE9=If You Touch Me
TTITLE10=Before Your Time
EXTD=www.conwaytwitty.net and www.lorettalynn.com
EXTT0=
EXTT1=
EXTT2=
EXTT3=
EXTT4=
EXTT5=
EXTT6=
EXTT7=
EXTT8=
EXTT9=
EXTT10=
PLAYORDER=
